<svg xmlns="http://www.w3.org/2000/svg" viewBox="0 0 574.94 190.26"><title>donders-full</title><path d="M42.94,109.39c0-2.16-.07-11.87-.35-13.13-.14-.84-1-1.4-2.79-1.75-1.54-.34-1.81-.62-1.81-1.6v-1.4c0-.9.21-1.12,1-1.12,2,0,6.49.28,9.77.28,3,0,7.61-.21,9.85-.28,2.51-.08,4.89-.14,7-.14,5.8,0,12.15.42,17.74,6.08s6.63,12.71,6.63,18a25.26,25.26,0,0,1-7,18.3C76.74,139.14,70,140,63.82,140c-.84,0-3.56-.14-5.23-.21-4.05-.14-7-.28-8.24-.28-7.12,0-10.62.28-11.45.28s-.91-.42-.91-1.12v-1.4c0-1.12.35-1.26,1.81-1.6,2.52-.56,2.86-1.19,2.93-2.79.14-2.94.21-8.24.21-12.09Zm9.92-14c-.49.07-1,.14-1,.56s-.14,11.52-.14,13.2l.07,21c0,2.79.28,4.39,1.88,4.68a57.61,57.61,0,0,0,7.83.35c15,0,19-12.22,19-20.81,0-5.24-1.32-10.83-5.52-14.87S65.43,95.35,56,95.35Z" transform="translate(-37.98)"/><path d="M154.82,115c0,11.18-7.05,25.57-28.15,25.57-19.49,0-27.8-11.8-27.8-25.21a24.54,24.54,0,0,1,9-19.7c3.91-3.21,9.42-6.08,19.21-6.08C152,89.55,154.82,108.9,154.82,115Zm-46.44-.35c0,8.88,5.59,21,18.44,21s18.51-11.32,18.51-20.47c0-8.38-5-20.74-18.16-20.74C114.24,94.44,108.38,105.41,108.38,114.62Z" transform="translate(-37.98)"/><path d="M163.82,137.39c0-.77,0-1.26,2.37-1.74,1.82-.42,2.31-.77,2.31-4.12,0-4.12.21-10.76.21-14.87v-7.27c0-2.38,0-10.89-.35-12.64-.27-1.39-1.11-1.74-2.37-2-2.1-.42-2.17-1-2.17-1.67V91.57c0-1.12.42-1.18,1-1.18,1,0,3.63.28,5.59.28,2.51,0,5.45-.28,6.36-.28.49,0,.63.07,1.46,1.18,2.79,3.56,3.14,4.06,5.94,7.34,7.54,8.8,15.15,17.53,22.77,26.33.07.08.42.5.49.5s.14-.29.14-.56c0-1.33-.21-7.33-.21-8.59-.07-2.73-.28-18.94-.49-20.12s-1.26-1.47-3.56-2.24c-.84-.21-.91-.7-.91-1.33V91.44c0-.77.35-1,1.19-1,1.39,0,3.63.28,6.08.28s5.8-.28,7.2-.28c.42,0,.91.21.91,1v1.12c0,1,0,1.54-1.54,1.75-2.3.42-3,1.19-3,3.91,0,1.89,0,3.49-.07,5.38-.14,5.51-.21,15.22-.21,18.72,0,2.17.14,11.66.07,13.55,0,.56.14,3,.14,3.56s-.14.84-1.4,1.74l-1,.91a1.34,1.34,0,0,1-.49.14c-.28,0-.28,0-1.19-1-5.24-6.42-30.38-35-34.3-40-.06-.07-.42-.56-.56-.56s-.07.56-.07.77c.21,8.24.28,9.15.35,18.09l.07,7.4c0,1.12,0,6.15.14,6.85.21,1.4,1.61,1.68,3.28,2,1.46.28,1.46,1.11,1.46,1.67v1.26c0,1-.35,1.19-1,1.19-1.18,0-4.12-.28-6-.28-3,0-6.49.28-7.68.28-.77,0-1-.35-1-.9Z" transform="translate(-37.98)"/><path d="M231.07,109.39c0-2.16-.07-11.87-.35-13.13-.14-.84-1-1.4-2.79-1.75-1.54-.34-1.82-.62-1.82-1.6v-1.4c0-.9.21-1.12,1-1.12,2,0,6.49.28,9.78.28,3,0,7.62-.21,9.85-.28,2.51-.08,4.89-.14,7-.14,5.79,0,12.15.42,17.74,6.08s6.64,12.71,6.64,18a25.26,25.26,0,0,1-7,18.3C264.87,139.14,258.17,140,252,140c-.84,0-3.57-.14-5.24-.21-4.05-.14-7-.28-8.24-.28-7.13,0-10.62.28-11.46.28s-.91-.42-.91-1.12v-1.4c0-1.12.35-1.26,1.82-1.6,2.52-.56,2.86-1.19,2.94-2.79.14-2.94.21-8.24.21-12.09Zm9.91-14c-.49.07-1,.14-1,.56s-.14,11.52-.14,13.2l.07,21c0,2.79.28,4.39,1.89,4.68a57.59,57.59,0,0,0,7.83.35c15,0,19-12.22,19-20.81,0-5.24-1.33-10.83-5.52-14.87s-9.5-4.05-18.93-4.05Z" transform="translate(-37.98)"/><path d="M292,109.39c0-2.16-.07-11.87-.35-13.13-.14-.84-1-1.4-2.8-1.75-1.53-.34-1.82-.62-1.82-1.6v-1.4c0-.9.21-1.12,1-1.12,1.26,0,8.24.35,16.34.35,9.15,0,11.59-.35,13.13-.35a1.17,1.17,0,0,1,1.26,1.33l-.42,7.82c0,1-.62,1-1.18,1h-1c-1,0-1.33,0-1.68-2-.21-1.33-.84-2.73-2.3-3-.7-.14-4.68-.14-5.73-.14a43.06,43.06,0,0,0-5.38.21c-.28.21-.28.49-.28,2.73-.07,3.91-.07,4.33-.07,6.14,0,6.84,0,7,.35,7.34s7.9.35,9.23.35c1.82,0,1.88,0,5.37-.14.28,0,1.33-.14,1.82-.14s.63.49.49,1.4l-.35,2.79c-.14,1.19-.14,1.54-1.19,1.54-.28,0-3.7-.21-4.4-.28-2.51-.07-6.43-.07-9-.07-1.26,0-2,.07-2.16.77s-.14,5.94-.14,7c0,1.74,0,5.45.14,7.06.2,2.65,1.82,2.65,4.89,2.65,8.17,0,10.62,0,11.59-3.91.56-2.16,1.12-2.24,2-2.24h1.33c1,0,1.19.36,1.12,1.06l-1.12,8.45c-.21,1.88-.91,2-1.81,2s-6.08-.29-8.45-.36c-2-.07-9.43-.28-11.67-.28-7.12,0-9.43.28-10.82.28-.77,0-.91-.42-.91-1.19v-1.33c0-1.12.35-1.32,1.82-1.6,2.52-.63,2.87-1.26,2.93-2.79.14-3,.21-8.24.21-12.16Z" transform="translate(-37.98)"/><path d="M343.64,120.77c0,2,.08,12,.29,13.14.27,1,1.53,1.46,2.79,1.75,1.6.28,1.88.63,1.88,1.6v1.4c0,.84-.14,1.12-1,1.12-1.12,0-6.84-.28-8.1-.28s-7.4.28-8.66.28c-.76,0-.91-.42-.91-1.12v-1.4c0-1.12.43-1.26,1.89-1.6,2.51-.56,2.86-1.19,2.93-2.79.07-2.94.14-8.24.14-12.09V109.39c0-2.16,0-11.87-.27-13.13-.21-.84-1.12-1.4-2.8-1.75S330,93.88,330,92.9v-1.4c0-.9.28-1.12,1-1.12,1.74,0,6.22.28,9.15.28,2.09,0,10.2-.28,12.57-.28,6.42,0,9,2,10.41,3.49a12.11,12.11,0,0,1,3.49,8.52c0,1.19-.35,8.66-7.41,11.38a10.82,10.82,0,0,1-1.61.49c-.27.07-.63.14-.63.35s3.78,7.47,6,11.25c5.31,8.87,6.7,9.43,8,9.85.35.14,1.68.49,2,.63s.42.34.42,1.25v1.18c0,1-.77,1-1.32,1-.92,0-4.89-.14-5.66-.14-1.55,0-4.05.14-5.59.14-1.12,0-1.47-.14-1.89-1.19-2.79-7-6.15-13.83-9.5-20.6-.62-1.33-1.11-1.89-2.72-1.89-2.52,0-2.94,0-2.94,1.26Zm.08-10.27c0,1.33.21,1.53,1.61,1.53.9,0,5.86,0,7.89-1.32a8.82,8.82,0,0,0,3.91-7.55c0-.49,0-6.14-5.59-7.61a25.9,25.9,0,0,0-5.87-.49c-1,0-1.74,0-1.88.56s-.07,3.42-.14,4.19Z" transform="translate(-37.98)"/><path d="M407.89,99.4c-.14,1-.14,1-1.32,1h-1.18c-.92,0-1.26,0-1.4-.7-.36-1.74-.63-3.14-2.59-4.26a9.5,9.5,0,0,0-4.6-1.12c-4.41,0-7.48,2.72-7.48,6,0,4,2.37,5.66,12.64,12.93,3.63,2.58,8.38,6.5,8.38,12.92s-5.45,14.32-17.74,14.32c-3.21,0-8.94-.84-11.53-2-1-.49-1.11-.7-1-1.68l.77-7.19c.07-.56.07-1,1.12-1h1.25c.49,0,1.26,0,1.4.85.5,2.72.7,4.12,3.71,5.38a14,14,0,0,0,5.17,1.05c5.66,0,8.52-3.92,8.52-7.2,0-4.05-3-6.15-11.11-11.74-7.68-5.3-9.71-9.14-9.71-13.83,0-6.35,4.75-10.12,7.62-11.66a20.72,20.72,0,0,1,9.71-2c3.85,0,7.89.63,9.35,1.47.84.49.92.77.76,1.67Z" transform="translate(-37.98)"/><path d="M42.73,176.41v-22.8h3.11v22.8Z" transform="translate(-37.98)"/><path d="M94.86,176.41,84.08,160.87a34.78,34.78,0,0,1-1.85-3h-.07s.14,1.41.14,2.6v16H79.46v-22.8h3l10.27,14.72c1.13,1.64,2.15,3.46,2.15,3.46H95s-.14-1.44-.14-3.19v-15H97.7v22.8Z" transform="translate(-37.98)"/><path d="M135.89,176.82a9.62,9.62,0,0,1-6.61-2.33l1.51-2.19a7.36,7.36,0,0,0,5.17,2c2.71,0,4.45-1.71,4.45-3.63,0-2.6-2.57-3.66-5.2-5-2.8-1.37-5.23-2.92-5.23-6.54s3.18-5.92,6.78-5.92a9.55,9.55,0,0,1,6.13,1.85l-1.44,2.26a7.52,7.52,0,0,0-4.66-1.54c-2.19,0-3.8,1.23-3.8,3.22,0,2.19,1.85,3.15,4.15,4.21,3,1.43,6.36,3,6.36,7.35C143.49,174.25,140.45,176.82,135.89,176.82Z" transform="translate(-37.98)"/><path d="M182.3,156.21v20.2h-3.11v-20.2h-6.43v-2.6h16v2.6Z" transform="translate(-37.98)"/><path d="M219.82,176.41v-22.8h3.12v22.8Z" transform="translate(-37.98)"/><path d="M263.59,156.21v20.2h-3.11v-20.2H254v-2.6h16v2.6Z" transform="translate(-37.98)"/><path d="M309.73,176.82c-6.29,0-9-3.53-9-9v-14.2h3.08v13.86c0,4.55,1.85,6.71,6,6.71,4,0,5.82-2.54,5.82-6.26V153.61h2.88v14C318.49,173.33,315.71,176.82,309.73,176.82Z" transform="translate(-37.98)"/><path d="M358.88,156.21v20.2h-3.12v-20.2h-6.43v-2.6h16v2.6Z" transform="translate(-37.98)"/><path d="M395.14,176.41v-22.8h12v2.6h-8.93v6.88h7.84v2.57h-7.84v8.14h9.18v2.6Z" transform="translate(-37.98)"/><path d="M585.72,0,542.94,103.27l.37.6a56.51,56.51,0,0,1,4.13,8l2.59,6.25L599,0Z" transform="translate(-37.98)" fill="#be311a"/><path d="M527.57,137.93a32,32,0,0,1-2,7.21l-.1.28A31.94,31.94,0,0,1,496,165.11h0A31.9,31.9,0,1,1,525.49,121l28.7,69.25h13.24l-.22-.53c-3.18-7.67-31.07-74.91-31.41-75.63a44.37,44.37,0,0,0-39.8-25,44.15,44.15,0,1,0,39.8,63.27l.27-.55-7.75-18.72Z" transform="translate(-37.98)" fill="#be311a"/><path d="M526.75,120.48a33.25,33.25,0,1,0,0,25.46l.12-.31a33.37,33.37,0,0,0,2.05-7.5l12.34,29.78,9.25,22.34h5.15Zm-19.82,39.07a28.51,28.51,0,1,1,15.43-37.25A28.5,28.5,0,0,1,506.93,159.55Z" transform="translate(-37.98)" fill="red"/><path d="M582.07,0l-40.8,98.49a56.32,56.32,0,0,1,3.21,4.65L587.21,0Z" transform="translate(-37.98)" fill="red"/><path d="M612.92,0H597.5L550,114.58l-1.32-3.19a57.61,57.61,0,0,0-4.23-8.24,56.39,56.39,0,0,0-3.21-4.65,57,57,0,1,0,0,69.42l-6.7-16.18a42.77,42.77,0,1,1,0-37.05c.34.71,31.38,75.57,31.38,75.57h15.43l-23.63-57Z" transform="translate(-37.98)" fill="#8e0000"/></svg>