<svg xmlns="http://www.w3.org/2000/svg" viewBox="0 0 173.94 190.26"><title>donders</title><path d="M206.66,0,163.88,103.27l.37.6a56.53,56.53,0,0,1,4.13,8l2.59,6.25L219.91,0Z" transform="translate(-59.91)" fill="#be311a"/><path d="M148.5,137.93a32,32,0,0,1-2,7.21l-.1.28A31.94,31.94,0,0,1,117,165.11h0A31.9,31.9,0,1,1,146.42,121l28.7,69.25h13.24l-.22-.53c-3.18-7.67-31.07-74.91-31.41-75.63a44.37,44.37,0,0,0-39.8-25,44.15,44.15,0,1,0,39.8,63.27l.27-.55-7.75-18.72Z" transform="translate(-59.91)" fill="#be311a"/><path d="M147.69,120.48a33.25,33.25,0,1,0,0,25.46l.12-.31a33.36,33.36,0,0,0,2.05-7.5l12.34,29.78,9.25,22.34h5.15Zm-19.82,39.07a28.51,28.51,0,1,1,15.43-37.25A28.5,28.5,0,0,1,127.87,159.55Z" transform="translate(-59.91)" fill="red"/><path d="M203,0,162.2,98.49a56.24,56.24,0,0,1,3.21,4.65L208.14,0Z" transform="translate(-59.91)" fill="red"/><path d="M233.86,0H218.43L171,114.58l-1.32-3.19a57.61,57.61,0,0,0-4.23-8.24,56.39,56.39,0,0,0-3.21-4.65,57,57,0,1,0,0,69.42l-6.7-16.18a42.77,42.77,0,1,1,0-37.05c.34.71,31.38,75.57,31.38,75.57h15.43l-23.63-57Z" transform="translate(-59.91)" fill="#8e0000"/></svg>