<svg xmlns="http://www.w3.org/2000/svg" viewBox="0 0 542.8 87.59"><title>ru-umc</title><path d="M324.6,70.41l-.17.43-5.17-.16-.36-.43h-.33v3.28a3.43,3.43,0,0,0,3.37,3.3c1.87-.11,2.76-1.91,2.89-3.61l.21-2.84ZM324,73.67a2.5,2.5,0,0,1-2,1.78,2.64,2.64,0,0,1-2.65-2.17,5.18,5.18,0,0,1,0-1.19l4.76.15A5.82,5.82,0,0,1,324,73.67Z" transform="translate(-35.06 -19.98)"/><polygon points="285.66 65.94 286.68 68.04 286.89 67.89 286.77 67.35 291.54 65.19 291.79 65.49 292.2 65.28 291.32 63.41 291.03 63.53 291.03 64.12 286.37 66.22 285.96 65.91 285.66 65.94"/><path d="M322.28,83.73V84l-1.36.29a3.07,3.07,0,0,1-1.34-2c-.45-1.81,0-3.51,2.29-4.18,2.45-.78,3.44.86,4,2.75a12.57,12.57,0,0,1,.24,1.57l-1.28.37-.17-.27a1.84,1.84,0,0,0,.49-1.84,1.77,1.77,0,0,0-2.34-1.23l.69,3,.52.22.1.29-1.39.37-.09-.28.19-.33-.73-3a2,2,0,0,0-1.77,2.44A2.45,2.45,0,0,0,322.28,83.73Z" transform="translate(-35.06 -19.98)"/><path d="M321.27,69a.75.75,0,0,1,.38-1,.71.71,0,0,1,.93.26.9.9,0,0,1-.35,1.09A.72.72,0,0,1,321.27,69Z" transform="translate(-35.06 -19.98)"/><path d="M325.35,88.45a.81.81,0,0,1,.25-1,.9.9,0,0,1,1.07.4.76.76,0,0,1-.37,1A.7.7,0,0,1,325.35,88.45Z" transform="translate(-35.06 -19.98)"/><path d="M361.42,102.79a.76.76,0,0,1,.38-1,.71.71,0,0,1,1,.37.78.78,0,0,1-.37,1A.75.75,0,0,1,361.42,102.79Z" transform="translate(-35.06 -19.98)"/><polygon points="287.68 36.86 286.64 38.94 286.87 39.03 287.32 38.65 291.92 41.1 291.82 41.48 292.24 41.65 293.08 39.83 292.77 39.68 292.35 39.99 287.94 37.56 287.89 37.07 287.68 36.86"/><polygon points="290.53 46.02 290.24 45.94 289.97 46.15 286.53 45.4 291.45 43.45 291.92 42.29 291.54 42.21 291.22 42.36 286.58 40.47 286.55 40.01 286.22 39.9 285.62 41.54 286.06 41.7 286.45 41.49 289.74 42.81 284.51 44.88 284.27 45.7 289.74 46.95 289.98 47.22 290.19 47.32 290.53 46.02"/><path d="M336.13,97.64h0a2.88,2.88,0,0,0-.7-2.24l-.08-.09,0,0-.06,0,0,0-.08-.08a2.68,2.68,0,0,0-2.24-.63A3.18,3.18,0,0,0,330.58,96a3.06,3.06,0,0,0,.19,4.15l0,0h0a3,3,0,0,0,4.1,0A3.53,3.53,0,0,0,336.13,97.64Zm-2,1.22a3.05,3.05,0,0,1-1.77,1,1.19,1.19,0,0,1-.92-.39l-.08-.1a1,1,0,0,1-.41-.79,3.71,3.71,0,0,1,1-2.07c.36-.37,1.64-1.76,2.66-.82l.15.15C335.74,96.83,334.41,98.54,334.12,98.86Z" transform="translate(-35.06 -19.98)"/><polygon points="308.57 86.59 310.7 87.08 310.73 86.82 310.25 86.46 311.27 81.27 311.74 81.24 311.78 80.8 309.81 80.45 309.73 80.78 310.21 81.15 309.23 86.16 308.7 86.31 308.57 86.59"/><path d="M359.95,104.19h.22l.43,1.39a3.16,3.16,0,0,1-2,1.33c-1.8.39-3.42,0-4-2.35-.76-2.54.78-3.54,2.64-4.09a11.12,11.12,0,0,1,1.56-.25l.35,1.36-.28.19a1.75,1.75,0,0,0-1.79-.58,2,2,0,0,0-1.28,2.46l3-.68.24-.55.3-.08.32,1.42-.29.07-.32-.21-2.93.71a1.93,1.93,0,0,0,3.85-.15Z" transform="translate(-35.06 -19.98)"/><polygon points="296.33 71.64 296.1 71.84 296.13 72.2 293.59 74.84 294.71 69.55 294 68.55 293.74 68.8 293.68 69.19 289.56 72.13 289.17 71.93 288.92 72.13 289.97 73.57 290.34 73.26 290.38 72.81 293.24 70.72 292.07 76.32 292.62 76.97 296.65 72.84 296.99 72.78 297.18 72.66 296.33 71.64"/><polygon points="316.76 81.31 316.73 81.62 317.04 81.82 317.39 85.48 314.06 81.09 312.9 80.97 312.93 81.33 313.18 81.63 312.77 86.84 312.35 87.04 312.35 87.37 314.02 87.4 314.04 86.93 313.75 86.6 313.99 83.01 317.47 87.59 318.29 87.58 317.83 81.85 318.03 81.52 318.04 81.29 316.76 81.31"/><polygon points="299.27 82.58 299.41 82.22 299.89 82.27 303.23 78.36 303.05 77.95 303.32 77.62 304.35 78.08 304.18 81.96 306.33 79.41 306.23 79.19 306.41 79.07 307.9 79.69 307.87 80.08 307.62 80.22 306.92 85.49 307.3 85.93 307.21 86.24 305.45 85.44 305.55 85.07 305.87 84.98 306.37 80.81 303.24 84.65 302.61 84.43 303.03 79.63 300.51 82.75 300.73 83.17 300.64 83.4 299.27 82.58"/><path d="M373.81,95.73l.2-.1.91,1.1a3.19,3.19,0,0,1-1.13,2.2c-1.38,1.36-3,1.75-4.67,0s-.85-3.58.56-5a9.53,9.53,0,0,1,1.24-1l.93,1-.14.28a1.76,1.76,0,0,0-1.85.41,1.88,1.88,0,0,0,0,2.72l2.32-2,0-.6.19-.22,1,1-.23.21h-.37l-2.33,2.23a1.87,1.87,0,0,0,2.92.36A2.57,2.57,0,0,0,373.81,95.73Z" transform="translate(-35.06 -19.98)"/><path d="M381.1,63.59v-.24l1.36-.32a3.15,3.15,0,0,1,1.33,2.09c.45,1.84,0,3.53-2.31,4.17s-3.45-.87-3.94-2.77a12.55,12.55,0,0,1-.27-1.59l1.32-.36.17.28a1.83,1.83,0,0,0,1.82,3.09l-.67-3.06-.54-.23-.08-.3,1.4-.39.06.28-.2.37.73,3.09a2.06,2.06,0,0,0,1.8-2.44A2.38,2.38,0,0,0,381.1,63.59Z" transform="translate(-35.06 -19.98)"/><path d="M381.84,59.65l-1.53.8a32.71,32.71,0,0,0,.18-3.29,2.87,2.87,0,0,0-1.29-1.9l-.23.19a2.4,2.4,0,0,1,.47,1,4.09,4.09,0,0,1,0,2.23,2,2,0,0,0-2.48-.88,2.18,2.18,0,0,0-1.45,3l1.29,3.07.44-.19.12-.29,4.6-2.43.34.22.24-.09Zm-5.2,2.72c-.58-1.26-.91-3.11.7-3.54,1.31-.37,2.1.95,2.3,2Z" transform="translate(-35.06 -19.98)"/><path d="M378.5,76V71.06l-.38-1.34,1.65,1.06a1,1,0,0,0-.41.19,5.28,5.28,0,0,0-.2,2l5.26-.08.11-.25h.26v1.95h-.14l-.23-.45-5.23.09c0,.58-.06,1.44.09,1.58a.72.72,0,0,0,.29.17L378.2,77Z" transform="translate(-35.06 -19.98)"/><polygon points="348.97 60.67 349.36 58.45 349.12 58.44 348.74 58.89 343.66 57.96 343.61 57.58 343.18 57.54 342.92 59.57 343.23 59.6 343.55 59.2 348.51 60.1 348.67 60.55 348.97 60.67"/><path d="M381.76,81.81l.23-.24,1.2.56a3.75,3.75,0,0,1-.23,2.66c-.87,1.71-2.1,2.86-4.46,1.87s-2.06-3-1.28-4.87a11.91,11.91,0,0,1,.75-1.39l1.33.51-.1.37a1.6,1.6,0,0,0-1.49,1c-.5,1,.26,1.94,1.18,2.67a2.55,2.55,0,0,0,3.4-.66A2.36,2.36,0,0,0,381.76,81.81Z" transform="translate(-35.06 -19.98)"/><polygon points="344.97 71.2 346.06 69.22 345.82 69.22 345.37 69.48 340.67 66.84 340.76 66.45 340.36 66.27 339.62 68.1 339.93 68.26 340.37 67.97 344.73 70.51 344.77 70.99 344.97 71.2"/><path d="M376.39,96.19l3.05-3.6-.66-1.71-.43.45a4.57,4.57,0,0,1,.1,1.15,4.48,4.48,0,0,1-1.3,1.91l-4-3.36.17-.44-.37-.25-1.36,1.77.37.26.45-.21,3.85,3.32-.08.47Z" transform="translate(-35.06 -19.98)"/><path d="M365.78,104.48l1.66-.93-.18-.2-.42-.07-1.18-2.44a6.08,6.08,0,0,1,1.61-.87,4.52,4.52,0,0,1,.81-.07l-.59-1.24a6.87,6.87,0,0,1-.5.58,6.24,6.24,0,0,1-1.67.9l-.82-1.81a9.15,9.15,0,0,1,1.91-1.09c.25-.07.72-.16.72-.16a3,3,0,0,1,.08-.53,5.34,5.34,0,0,1,.41-.81l-4.81,2.9.1.38h.45l2.33,4.78-.11.41Z" transform="translate(-35.06 -19.98)"/><path d="M371.45,42.2l-.28-.79h-5.7V36a3.68,3.68,0,0,0-2.63-3.69,14.33,14.33,0,0,0-5.48-4.11V23.29h-3.28V20h-4.84v3.3H346v4.93a13.78,13.78,0,0,0-5.44,4.11A3.68,3.68,0,0,0,337.95,36v5.39h-5.67l-.25.79a23,23,0,0,0-1,7.07c0,7.92,2.85,17.21,5.64,24.46,4.23,10.94,9.82,20.83,12.74,24.12.69.72,1.25,1.34,2.18,1.39h.12a3.32,3.32,0,0,0,2.2-1.39c3-3.29,8.61-13.19,12.83-24.12,2.81-7.25,5.66-16.53,5.66-24.46A22.68,22.68,0,0,0,371.45,42.2ZM363.24,36v5.39h-5.13V35.77c0-.71.19-.86.31-.95a4.65,4.65,0,0,1,2.57-.46C363,34.37,363.24,35.3,363.24,36Zm-3.74-3.87a5.14,5.14,0,0,0-2.16.65,5.64,5.64,0,0,0-3.28-2.41v-.77A11.9,11.9,0,0,1,359.51,32.15Zm-3.63,3.62v5.64h-8.35V35.77c0-1.62,1.06-3.48,4.14-3.48h0C354.79,32.29,355.88,34.15,355.88,35.77Zm-8.09-10.66H351V21.8h1.35v3.31h3.26v1.46h-3.26v3.36H351V26.57h-3.2Zm1.45,4.51v.77A5.85,5.85,0,0,0,346,32.8a4.88,4.88,0,0,0-2.16-.65A12.32,12.32,0,0,1,349.23,29.62Zm-9,6.4c0-.72.24-1.65,2.22-1.65a4.65,4.65,0,0,1,2.56.46c.13.09.29.24.29.95v5.64h-5.08Zm11.45,7.7h17.87a7.23,7.23,0,0,1,.23,1.11h-8.38c-3.58,0-5.11.88-5.11,3a2.64,2.64,0,0,0,.94,1.88c-.39.16-2.12.8-2.38.92a2.21,2.21,0,0,1-.61-1.2,3.4,3.4,0,0,0,.53-1.72c0-1.3-.87-2.65-3.12-2.7h0a3.34,3.34,0,0,0-2.21.78.4.4,0,0,0-.1.1,1.88,1.88,0,0,0-1.52,1.78v.92a3.08,3.08,0,0,1,.64.13,1.07,1.07,0,0,1,.5.43,1.18,1.18,0,0,1-.47,1.49c-.23-.12-2-.76-2.37-.92a2.65,2.65,0,0,0,1-1.88c0-2.14-1.53-3-5.12-3h-8.24a9.21,9.21,0,0,1,.25-1.11ZM335.22,62c-.34-1.23-.61-2.41-.86-3.6,2.5-.41,8.62-1.41,12.9-2.08l-12,5.68Zm13.16-3.7L346,62h-5.21Zm-12.51,6h10.87v5.38h-9.15C336.92,67.81,336.36,66,335.86,64.28Zm10.87,25.45c-1.66-2.84-3.43-6.33-5.15-10.09h5.15Zm9.95,0V79.65h5.15C360.09,83.41,358.33,86.9,356.68,89.74Zm8-16.89c-.61,1.53-1.23,3-1.84,4.48h-8.37v16a26.63,26.63,0,0,1-2.16,2.91,4.44,4.44,0,0,1-.63.6c-.16-.13-.41-.41-.6-.6a27.71,27.71,0,0,1-2.17-2.91v-16h-8.26c-.66-1.49-1.29-3-1.85-4.48l-.35-.89h10.46V64.28h5.56V72H365C364.9,72.25,364.78,72.55,364.66,72.85ZM348.66,62l1.87-2.91V62Zm4.14,0V59.06L354.7,62Zm13,7.7h-9.16V64.28h10.93C367.08,66,366.5,67.81,365.84,69.66ZM355,58.26l7.68,3.7H357.4ZM368.23,62h0l-12.09-5.68c4.27.67,10.42,1.67,12.93,2.08C368.83,59.56,368.55,60.73,368.23,62Zm1.28-5.86L355.2,53.78a4,4,0,0,1,.3,1.48,3.75,3.75,0,0,1-3.72,3.8h-.24a3.71,3.71,0,0,1-3.63-3.8,3.82,3.82,0,0,1,.29-1.48l-14.26,2.33a41.14,41.14,0,0,1-.62-6.89c0-.76,0-1.44.08-2.15h8.53c2.34,0,2.53.26,2.65.36a.55.55,0,0,1,0,.72A2.08,2.08,0,0,0,343.26,50v.08c0,1,.82,1.31,2.76,2.08l2.51,1,.4-.24a3.68,3.68,0,0,0,2.14-3.07,2.37,2.37,0,0,0-.06-.55,2.48,2.48,0,0,0-.23-.6h0a1.62,1.62,0,0,0-.69-.77,1.38,1.38,0,0,1,1.33-.92v0l.14,0h.08a1,1,0,0,1,1,1.06c0,.72-.46.87-.46,1.81A3.67,3.67,0,0,0,354.28,53l.44.24,2.54-1c2-.78,2.78-1.13,2.78-2.08V50a2.07,2.07,0,0,0-1.27-1.88.48.48,0,0,1,0-.72c.13-.1.32-.36,2.63-.36h8.7c.05.71.09,1.4.09,2.15A43.9,43.9,0,0,1,369.51,56.11Z" transform="translate(-35.06 -19.98)"/><path d="M414.22,62.8c2.72,0,4.25,1,4.25,3.5,0,3-2.33,3.66-5,3.66h-.68V62.8Zm3.87,8.31c2.49-.89,4.37-2.63,4.37-5.41,0-3.92-3.81-4.81-7.2-4.81h-7.88c-.34,0-.39.17-.39.46v.59c0,.47.18.5.8.67l1.3.36V79.47l-1.3.35c-.61.18-.8.21-.8.68v.59c0,.29.06.48.39.48h7.1c.33,0,.39-.19.39-.48V80.5c0-.47-.18-.5-.79-.68l-1.3-.35v-7.8h1.88a69.32,69.32,0,0,0,5.17,9.39c.35.48.48.51,1,.51h4c.32,0,.39-.19.39-.48V80.5c0-.56-.31-.53-.8-.68a2.39,2.39,0,0,1-1.65-1.21,51.68,51.68,0,0,1-4.63-7.5Zm11.64,6.58a1.74,1.74,0,0,1,1.61-1.92l3.16-.76v3.14a4.82,4.82,0,0,1-3.08,1.41c-.76,0-1.7-.32-1.7-1.86Zm21.37.1a4.67,4.67,0,0,1-3.3,1.74c-2.36,0-3.37-2.49-3.37-5.29,0-3.34,1.44-5.37,3.61-5.37s3.07,2.24,3.07,5.34Zm3.25-16.2c0-.44-.15-.7-.68-.7h-4.37c-.33,0-.38.17-.38.46v.39c0,.54.18.56.8.74l1.39.41v5a4.9,4.9,0,0,0-3.3-1.12c-3.19,0-6.83,2.33-6.83,8,0,5,2.77,7.13,5.5,7.13a6.47,6.47,0,0,0,4.63-2.34v1.21c0,.45.15.72.68.72h4.37c.33,0,.38-.19.38-.48v-.38c0-.54-.18-.57-.79-.74l-1.39-.42Zm49,6.35c0-.43-.15-.7-.68-.7h-4.37c-.35,0-.37.18-.37.48v.38c0,.53.17.56.79.74l1.39.41v8.55a4.28,4.28,0,0,1-3.31,1.74c-2.28,0-2.45-1.74-2.45-4.73V67.94c0-.43-.15-.7-.68-.7h-4.37c-.35,0-.38.18-.38.48v.38c0,.53.17.56.79.74l1.4.41v7.24c0,4.57,2.12,5.5,4.28,5.5a5.88,5.88,0,0,0,4.72-2.34v1.21c0,.45.15.72.67.72h4.37c.32,0,.38-.19.38-.48v-.38c0-.54-.18-.57-.8-.74l-1.38-.42ZM439.56,81.57c.33,0,.39-.19.39-.48v-.38c0-.54-.17-.57-.8-.74l-1.39-.42v-8c0-3.55-2.49-4.73-5.7-4.73a14.16,14.16,0,0,0-3.78.51c-.81.23-1,.44-1,1.21l-.18,1.59c0,.29.06.41.27.41a2,2,0,0,0,.83-.33,8.1,8.1,0,0,1,3.69-1c2.54,0,2.66,1.69,2.66,2.84v1.48L429,74.65A3,3,0,0,0,426.27,78c0,2.3,1.18,4,3.67,4,1.61,0,2.79-.53,4.57-2.22v1.09c0,.45.15.72.68.72ZM468.3,74.5c0,3.78-1.91,5.58-4,5.58s-2.63-2-2.63-4.16V71a4.7,4.7,0,0,1,3.31-1.75c2.36,0,3.36,2.49,3.36,5.24Zm3.45-.64c0-4.85-2.77-7-5.49-7a6.52,6.52,0,0,0-4.64,2.33V61.59c0-.44-.15-.7-.67-.7h-4.37c-.32,0-.38.17-.38.46v.39c0,.54.17.56.79.74l1.39.41V79.72a1,1,0,0,0,.56,1A12.14,12.14,0,0,0,464.27,82c4.74,0,7.48-3.32,7.48-8.12Zm45.07,3.93a4.69,4.69,0,0,1-3.31,1.74c-2.36,0-3.36-2.49-3.36-5.29,0-3.34,1.44-5.37,3.59-5.37s3.08,2.24,3.08,5.34Zm3.25-16.2c0-.44-.15-.7-.68-.7H515c-.36,0-.39.17-.39.46v.39c0,.54.18.56.8.74l1.39.41v5a4.92,4.92,0,0,0-3.31-1.12c-3.19,0-6.83,2.33-6.83,8,0,5,2.78,7.13,5.5,7.13a6.5,6.5,0,0,0,4.63-2.34v1.21c0,.45.14.72.68.72h4.37c.32,0,.38-.19.38-.48v-.38c0-.54-.18-.57-.79-.74l-1.39-.42ZM481,79.94c-2.39,0-3.81-2.36-3.81-5.53s1.39-5.54,3.81-5.54,3.84,2.33,3.84,5.51-1.42,5.56-3.84,5.56Zm-.35,2c5,0,7.52-3.84,7.52-7.94,0-3.82-2.18-7.21-6.88-7.21-5,0-7.53,3.84-7.53,7.95,0,3.81,2.19,7.21,6.88,7.21Z" transform="translate(-35.06 -19.98)"/><path d="M577.86,67.8c0-.36-.11-.38-.41-.5a10.5,10.5,0,0,0-3.28-.48c-5.82,0-7.36,4.08-7.36,7.56s1.48,7.6,7.36,7.6a10.42,10.42,0,0,0,3.28-.48c.3-.12.41-.14.41-.5V78.82c0-.21-.06-.3-.21-.3a1.64,1.64,0,0,0-.5.18,6.53,6.53,0,0,1-2.81.65c-2.72,0-4.37-1.66-4.37-5s1.68-4.93,4.37-4.93a6.65,6.65,0,0,1,2.81.66,1.87,1.87,0,0,0,.5.19c.15,0,.21-.09.21-.3Zm-52.68-.56c-.35,0-.38.18-.38.48v.38c0,.53.17.56.79.74l1.39.41v6.65c0,5,2.24,6.09,4.61,6.09a4.83,4.83,0,0,0,4.25-2.22h.09v1.45c0,.24.09.36.36.36h2.33c.27,0,.35-.12.35-.36V67.6c0-.24-.11-.36-.35-.36H536.2c-.27,0-.35.12-.35.36v9.77a4,4,0,0,1-3.33,1.86c-2.28,0-2.4-1.66-2.4-4.25V67.6c0-.24-.11-.36-.35-.36Zm17.76,14c0,.24.09.36.35.36h2.42c.27,0,.35-.12.35-.36V71.43a4,4,0,0,1,3.34-1.86c2.28,0,2.39,1.66,2.39,4.25v7.39c0,.24.09.36.36.36h2.42c.27,0,.35-.12.35-.36V71.43a4,4,0,0,1,3.34-1.86c2.27,0,2.39,1.66,2.39,4.25v7.39c0,.24.09.36.35.36h2.42c.27,0,.35-.12.35-.36v-8.3c0-5.05-2.21-6.09-4.63-6.09a5.91,5.91,0,0,0-4.9,2.39,3.87,3.87,0,0,0-3.93-2.39A4.92,4.92,0,0,0,546.06,69H546V67.6a.32.32,0,0,0-.36-.36h-2.33c-.26,0-.35.12-.35.36Z" transform="translate(-35.06 -19.98)"/><path d="M40.59,73.63c0,1.52,0,4.1.05,5.07,0,.7.25.93,1.17,1.17.63.16.74.24.74.68v.58c0,.36-.09.48-.36.48s-.65,0-1.13-.07-1.31-.05-2.18-.05c-1,0-1.74,0-2.3.05s-1,.07-1.13.07-.39-.12-.39-.48v-.58c0-.45.11-.53.75-.68.93-.24,1.16-.47,1.18-1.17,0-1.16,0-3.26,0-5.07V68.87c0-1.82,0-3.95,0-5.12,0-.73-.25-.93-1.18-1.17-.64-.14-.75-.24-.75-.67v-.59c0-.36.09-.47.32-.47s.72,0,1.2.06,1.14.05,2,.05c1.4,0,1.4,0,4-.09.55,0,1.06,0,1.51,0,2,0,3.26.44,4.18,1.47a5.35,5.35,0,0,1,1.39,3.58,5,5,0,0,1-3.17,4.88c-.62.18-.67.21-.67.36a.31.31,0,0,0,.1.17,4.21,4.21,0,0,1,.45.91,51.57,51.57,0,0,0,3.43,6.15c.79,1.12,1.14,1.44,2,1.66.55.14.57.17.57.67v.5a.41.41,0,0,1-.46.42h-.22c-.61,0-1.62-.07-2.29-.07-.42,0-1,0-1.66.07h-.42c-.54,0-.54,0-1.2-1.8-.26-.65-2.16-4.8-3.15-7-.48-1.06-.59-1.13-1.27-1.13h-.19l-.2,0-.45,0c-.16,0-.3.19-.3.52Zm0-9.74,0,3.51v1.09l0,.81c0,.58.1.69.59.69,1.83,0,2.87-.21,3.53-.76A3.88,3.88,0,0,0,46,66.3,3.18,3.18,0,0,0,43.75,63a9.77,9.77,0,0,0-2.41-.21c-.61,0-.73.06-.73.46Z" transform="translate(-35.06 -19.98)"/><path d="M55.27,68.58c.09-.8.28-1,1.14-1.27a18.68,18.68,0,0,1,3.6-.44c3.54,0,5.18,1.32,5.18,4.17l-.09,5.34c0,2.94,0,3,.34,3.3a2,2,0,0,0,1.21.37c.55.05.73.14.73.5V81c0,.32-.09.38-.59.51l-3.32.57a3.26,3.26,0,0,1-.62.06c-.26,0-.42-.11-.47-.44a4.52,4.52,0,0,1-.13-1.16c0-.53-.05-.78-.19-.78a.52.52,0,0,0-.19.12,15.78,15.78,0,0,1-1.72,1.26,5.34,5.34,0,0,1-2.75.75c-1.76,0-3.16-1.59-3.16-3.69a5.88,5.88,0,0,1,.69-2.83c.23-.31.26-.35,1.74-.64L60.36,74c1.58-.34,1.78-.49,1.78-1.37v-.51c0-2-.73-2.75-2.61-2.75a8.38,8.38,0,0,0-3.85,1.1.75.75,0,0,1-.42.18c-.14,0-.2-.13-.2-.35V70.1Zm6.87,7.09c0-.4,0-.48-.22-.48a.71.71,0,0,0-.2,0l-.31.06a7.19,7.19,0,0,0-2.64.79,2.06,2.06,0,0,0-1.16,1.88,1.52,1.52,0,0,0,1.59,1.63,3.52,3.52,0,0,0,2.38-1.08,2.62,2.62,0,0,0,.56-2Z" transform="translate(-35.06 -19.98)"/><path d="M80.51,59.48a1.52,1.52,0,0,1,.32,0c.25,0,.4.17.4.52L81,68.92v5.24c0,3.78,0,4.73.23,5.12.25.55.45.69,1.64.8.26,0,.4.12.4.32V81c0,.28-.08.37-.59.47l-3.62.71c-.22,0-.39.06-.49.06s-.32-.15-.34-.52l-.08-1.25c-.06-.72-.06-.75-.25-.75a.55.55,0,0,0-.26.18,12.66,12.66,0,0,1-1.44,1.22,3.88,3.88,0,0,1-2.47.82c-3.09,0-5.28-2.93-5.28-7,0-4.78,2.62-8,6.43-8a7.21,7.21,0,0,1,2.54.55.34.34,0,0,0,.19.12c.11,0,.23-.24.23-.47,0,0,0,0,0-.55l0-3.15c0-1.53-.08-1.64-1.27-1.85-.53-.06-.63-.15-.63-.55v-.52c0-.29.1-.38.56-.43ZM71.77,74c0,3.18,1.36,5.45,3.32,5.45S78,77.72,78,74.26a8.74,8.74,0,0,0-.62-3.87,2.6,2.6,0,0,0-2.29-1.47C73.14,68.92,71.77,71,71.77,74Z" transform="translate(-35.06 -19.98)"/><path d="M86.38,68.54c0-2.54,0-5.46-.09-6,0-.69-.35-1-1.15-1s-.86-.17-.86-.52v-.45c0-.27.1-.36.48-.41l4.08-.62.53-.09c.2,0,.33.21.33.5a2.79,2.79,0,0,1,0,.42c0,.69-.06,1.53-.09,3.93,0,1.81,0,3.2,0,4.06l0,.5V69c0,.11.06.17.14.17s.47-.33,1.11-1a3.26,3.26,0,0,1,2.93-1.29c3.22,0,5.24,2.62,5.24,6.81,0,4.89-3,8.23-7.46,8.23a10.16,10.16,0,0,1-4.7-1.25,1,1,0,0,1-.51-1v-.32c.06-2.54.08-5.57.11-9.21Zm3.55,3a11,11,0,0,0-.45,3.82,10.11,10.11,0,0,0,.31,3.54,2.46,2.46,0,0,0,2.05,1.13c2.18,0,3.79-2.42,3.79-5.63s-1.24-5.13-3.1-5.13A3.06,3.06,0,0,0,89.93,71.56Z" transform="translate(-35.06 -19.98)"/><path d="M114.19,69.93a9,9,0,0,1-.78,9.49,6.69,6.69,0,0,1-5.59,2.49c-4,0-6.59-2.78-6.59-7.11a8.45,8.45,0,0,1,2-5.78,6.24,6.24,0,0,1,5.06-2.15A6.34,6.34,0,0,1,114.19,69.93Zm-9.67,4.29c0,3.12,1.58,5.46,3.81,5.46,2,0,3.53-2.19,3.53-5,0-3.33-1.57-5.67-3.79-5.67C106,69.05,104.52,71.23,104.52,74.22Z" transform="translate(-35.06 -19.98)"/><path d="M130.65,74c0,2.72.05,4.33.12,4.84.1.79.39,1,1.45,1.14.44.07.52.16.52.5v.41c0,.34-.07.43-.46.5l-3.81.51-.39.07c-.34,0-.34,0-.53-2,0-.46-.11-.67-.28-.67s-.2.1-.58.47c-1.89,1.84-2.45,2.14-4,2.14a5.16,5.16,0,0,1-2.87-.78c-.9-.58-1.28-1.59-1.28-3.19,0-.25,0-.75,0-1.28V72.6c0-3.43-.09-3.7-1.21-3.81-.63,0-.78-.15-.78-.47v-.5c0-.35.1-.41.48-.47l4.08-.4.5-.06c.2,0,.28.11.28.35s0,.38,0,.63c-.12,1.4-.17,3.27-.17,4.68v2.3c0,2.63.06,3.07.51,3.71a2,2,0,0,0,1.73.76,3.29,3.29,0,0,0,3-1.64c.36-.66.44-1.41.44-3.65V72.57a28.8,28.8,0,0,0-.12-3c-.11-.54-.37-.78-1.08-.86s-.78-.14-.78-.44v-.54c0-.32.09-.41.48-.44l4-.44a2.77,2.77,0,0,1,.45,0c.28,0,.37.09.37.35l0,.77c0,.76,0,.76-.06,2,0,.54,0,1.2,0,1.92Z" transform="translate(-35.06 -19.98)"/><path d="M146.35,59.48a1.76,1.76,0,0,1,.34,0c.24,0,.38.17.38.52l-.18,8.95v5.24c0,3.78,0,4.73.21,5.12.26.55.45.69,1.66.8.24,0,.38.12.38.32V81c0,.28-.08.37-.58.47l-3.61.71c-.22,0-.4.06-.5.06s-.32-.15-.34-.52L144,80.44c-.06-.72-.06-.75-.25-.75a.53.53,0,0,0-.26.18,13.87,13.87,0,0,1-1.5,1.22,3.92,3.92,0,0,1-2.48.82c-3.08,0-5.24-2.93-5.24-7,0-4.78,2.58-8,6.38-8a7.74,7.74,0,0,1,2.6.55.39.39,0,0,0,.2.12c.1,0,.21-.24.21-.47,0,0,0,0,0-.55l0-3.15c0-1.53-.08-1.64-1.33-1.85-.52-.06-.63-.15-.63-.55v-.52c0-.29.11-.38.54-.43ZM137.57,74c0,3.18,1.34,5.45,3.3,5.45s3-1.73,3-5.2a8.78,8.78,0,0,0-.63-3.87,2.75,2.75,0,0,0-2.36-1.47C138.94,68.92,137.57,71,137.57,74Z" transform="translate(-35.06 -19.98)"/><path d="M159.74,68.87c0-1.82,0-3.95-.05-5.12,0-.73-.25-.93-1.18-1.17-.65-.14-.76-.24-.76-.67v-.59c0-.36.08-.47.36-.47l1.16.06c.53,0,1.32.05,2.17.05,1,0,1.72,0,2.28-.05l1.07-.06c.28,0,.36.11.36.47v.59c0,.44-.11.54-.72.67-.9.23-1.1.44-1.12,1.17,0,1-.06,3.59-.06,5.12V72c0,3.36.14,4.65.63,5.6a4.54,4.54,0,0,0,4.24,2.22c2.34,0,4-1,4.62-2.8.36-1.1.39-1.49.39-5.17v-3c0-1.73,0-4-.06-5.12,0-.73-.23-.93-1.17-1.17-.64-.14-.77-.24-.77-.67v-.59c0-.36.1-.47.36-.47s.68,0,1.16.06,1.08.05,1.59.05,1.12,0,1.68-.05l1.13-.06c.29,0,.37.11.37.47v.59c0,.44-.11.54-.76.67-.94.23-1.13.44-1.16,1.17,0,1-.06,3.52-.06,5.12v2.85c0,3.47-.05,4.31-.28,5.29-.71,3.25-3.37,4.9-7.83,4.9-3.4,0-5.8-1.13-6.84-3.25-.59-1.24-.75-2.61-.75-6.82Z" transform="translate(-35.06 -19.98)"/><path d="M178.35,68c0-.45.05-.54.38-.59l4-.49.48-.06c.22,0,.36.21.38.55s.1,1.62.1,1.77c0,.36.13.62.27.62a.6.6,0,0,0,.32-.2l.27-.32.53-.55c1.34-1.52,2-1.87,3.66-1.87,2,0,3.49.78,4,2.18.26.71.26.71.26,5v1c0,1.72,0,3.39,0,4s.21.8,1.05,1.08.86.29.86.7v.46c0,.31-.08.4-.31.4h-.18c-.72-.07-2-.09-3-.09s-2.39,0-3.12.09h-.2c-.23,0-.31-.12-.31-.4v-.46c0-.41,0-.43.88-.7s1-.46,1.06-1.08,0-2.3,0-4V74a10.33,10.33,0,0,0-.29-3.27,2.08,2.08,0,0,0-2.1-1.22A3.39,3.39,0,0,0,184.54,71c-.47.67-.6,1.31-.6,3.21V75c0,1.76,0,3.3.06,4s.24.8,1,1.08.86.29.86.7v.46c0,.28-.1.4-.33.4h-.18c-.72-.07-2-.09-3-.09s-2.44,0-3.12.09h-.19c-.22,0-.3-.12-.3-.4v-.46c0-.41,0-.43.86-.7s1-.46,1.08-1.08,0-2.21,0-4V74a25.63,25.63,0,0,0-.33-4.25c-.16-.5-.43-.67-1.3-.73-.64-.07-.78-.12-.78-.38Z" transform="translate(-35.06 -19.98)"/><path d="M199.19,72.6c0-3.46,0-3.68-1.19-3.81-.65,0-.79-.15-.79-.44v-.54c0-.33.08-.41.48-.45l4-.43.23,0a.69.69,0,0,1,.23,0c.25,0,.36.21.36.55,0,.05,0,.05,0,1.15,0,.5-.06,3.34-.06,5V75c0,1.72,0,3.28.06,4s.21.8,1,1.08.86.29.86.7v.46c0,.28-.09.4-.3.4h-.21c-.72-.07-2-.09-3.06-.09s-2.39,0-3.1.09h-.19c-.26,0-.32-.09-.32-.4v-.46c0-.41,0-.41.88-.7s1-.46,1.06-1.08,0-2.1,0-4Zm3.5-10a2.2,2.2,0,0,1-4.4,0,2.06,2.06,0,0,1,2.29-2.06A2,2,0,0,1,202.7,62.58Z" transform="translate(-35.06 -19.98)"/><path d="M219.6,67.78c0,.42,0,.42-.53.57-.36.17-.53.44-1,1.69-.3.83-.3.83-2.71,6.9-.9,2.29-1.1,2.82-1.29,3.39a3.29,3.29,0,0,1-.37.89c-.07.15-.19.23-.59.28-.24,0-.33,0-1.31.2a1.5,1.5,0,0,1-.31,0c-.28,0-.3,0-.61-1s-.62-1.68-1.9-5.32-1.85-5.28-2.32-6.41c-.2-.51-.27-.54-.88-.77a.46.46,0,0,1-.27-.48v-.52c0-.29.13-.38.48-.38l1.36.06c.26,0,.76,0,1.43,0,1.32,0,2.13,0,3-.09h.34c.28,0,.38.09.38.38v.52c0,.39,0,.39-.77.6s-1.12.41-1.12.82a1.9,1.9,0,0,0,.1.59c.15.42.29.87.4,1.33l.7,2.31c.87,2.88,1.46,4.75,1.52,4.75a1.08,1.08,0,0,0,.11-.33l.11-.41.25-.8c.13-.46.34-1,.5-1.62l.81-2.3a20.07,20.07,0,0,0,1.1-3.66c0-.36-.46-.68-1.15-.83-.34-.09-.43-.17-.43-.45v-.52c0-.27.12-.38.34-.38a1.4,1.4,0,0,1,.31,0c.34,0,1.48.06,2,.06s1.17,0,1.75-.09h.26c.21,0,.3.09.3.38Z" transform="translate(-35.06 -19.98)"/><path d="M224.69,73.33c-1,0-1.14.09-1.14,1.1,0,2.8,1.76,4.87,4.16,4.87a7.91,7.91,0,0,0,4.34-1.5c.06-.05.08-.08.11-.08s.16.11.16.27a25.46,25.46,0,0,1-.3,2.59c-.09.17-.37.35-1.16.66a9.63,9.63,0,0,1-3.52.67c-4.08,0-6.87-2.89-6.87-7.08,0-4.56,2.95-8,7-8,3.29,0,5.11,1.94,5.11,5.42,0,.8-.32,1-1.36,1Zm.49-1.43,1.29-.12c.49,0,1.85-.14,2.37-.23s.59-.2.59-.59a3.24,3.24,0,0,0-.53-1.65,1.92,1.92,0,0,0-1.64-.72,3,3,0,0,0-2.31,1.13,3.59,3.59,0,0,0-.79,1.9c0,.24.12.31.4.31Z" transform="translate(-35.06 -19.98)"/><path d="M234.89,68.17c0-.45.08-.53.5-.6l4.06-.63.23,0a.91.91,0,0,1,.23,0c.2,0,.33.21.33.49l0,1.3c0,1.26,0,1.45.25,1.45a1.21,1.21,0,0,0,.54-.45l1.08-1.3A3,3,0,0,1,244,67.05a4.77,4.77,0,0,1,1.36-.18c.72,0,1,.21,1,.64v.05l-.11,2.08c0,.52-.15.72-.4.72a2.05,2.05,0,0,1-.25-.06,6,6,0,0,0-1.63-.18,3.21,3.21,0,0,0-2.37.83c-.63.67-.75,1.26-.75,4.16v1.27l.06,1.9c0,1,.08,1.21.47,1.4a6.12,6.12,0,0,0,1.45.42c.86.21.88.21.88.61v.41c0,.31-.14.48-.37.48h-.11c-.82,0-3-.09-4.18-.09-.9,0-2.21,0-2.86.09h-.21c-.21,0-.3-.12-.3-.4v-.46c0-.41,0-.41.82-.7s1-.46,1.06-1.08,0-2.09,0-4V74a15.12,15.12,0,0,0-.46-3.94,1.39,1.39,0,0,0-1.52-1c-.62,0-.71-.09-.71-.41Z" transform="translate(-35.06 -19.98)"/><path d="M257.64,69.9c0,.47-.09.51-.4.51h-.45c-.28,0-.28,0-.55-.73a2.41,2.41,0,0,0-2.41-1.22,2,2,0,0,0-2.23,1.91c0,.8.39,1.33,1.48,2a22.51,22.51,0,0,0,2.51,1.27,4.37,4.37,0,0,1,2.89,3.86c0,2.68-2.33,4.45-5.85,4.45a7.9,7.9,0,0,1-3.61-.78c-.39-.17-.47-.35-.45-.81l.17-2c0-.35.17-.5.47-.5h.48c.29,0,.33,0,.5.77a2.76,2.76,0,0,0,2.74,1.78c1.42,0,2.43-.8,2.43-1.95,0-.89-.45-1.34-2-2.1-3.58-1.67-4.47-2.67-4.47-4.84,0-2.88,2-4.58,5.47-4.58a8.45,8.45,0,0,1,2.88.49c.45.19.57.33.57.69v.08Z" transform="translate(-35.06 -19.98)"/><path d="M263,72.6c0-3.46,0-3.68-1.19-3.81-.64,0-.8-.15-.8-.44v-.54c0-.33.09-.41.49-.45l4-.43.2,0a.71.71,0,0,1,.23,0c.24,0,.36.21.36.55,0,.05,0,.05,0,1.15,0,.5-.06,3.34-.06,5V75c0,1.72,0,3.28.06,4s.21.8,1,1.08.87.29.87.7v.46c0,.28-.1.4-.32.4h-.19c-.72-.07-2-.09-3-.09s-2.41,0-3.1.09h-.19c-.25,0-.32-.09-.32-.4v-.46c0-.41,0-.41.88-.7s1-.46,1.06-1.08,0-2.1,0-4Zm3.45-10a2.17,2.17,0,0,1-4.33,0,2,2,0,0,1,2.29-2.06A2,2,0,0,1,266.4,62.58Z" transform="translate(-35.06 -19.98)"/><path d="M272.27,71.11c0-1.71,0-1.74-.7-1.74l-.5,0h-.73a3.48,3.48,0,0,1-.42,0c-.16,0-.28-.07-.28-.16a1.36,1.36,0,0,1,.12-.39l.33-1c.23-.63.28-.7.56-.7l.66.07a1.47,1.47,0,0,0,.33,0c.5,0,.7-.19.7-.62,0-.16,0-1.11-.08-2,0-.46,0-.91,0-1.25a1,1,0,0,1,.77-1.1l1.77-.66c.56-.2.56-.2.65-.2s.28.2.28.44a8.19,8.19,0,0,1-.08.86c-.09.74-.29,3.2-.29,3.77s.15.62.94.62h2.31A7.74,7.74,0,0,0,280,67.1h.17a.22.22,0,0,1,.23.24,9.14,9.14,0,0,1-.33,1.36c-.13.61-.27.73-.72.73l-.85,0c-.19,0-.52,0-1-.07h-1.06c-.9,0-.9,0-.9,1.24v4.54c0,2.3.05,3.07.32,3.62a1.68,1.68,0,0,0,1.69.84,8.67,8.67,0,0,0,2.26-.38,2.27,2.27,0,0,1,.37-.09c.14,0,.2.09.2.23a10.19,10.19,0,0,1-.3,1.94c-.22.3-2.14.67-3.47.67-3.18,0-4.4-.95-4.4-3.51l0-1.74c0-.7.07-1.22.07-1.58Z" transform="translate(-35.06 -19.98)"/><path d="M296.24,67.72c0,.26,0,.35-.3.47-.54.26-.65.33-1.3,2.1s-3.5,9.16-4.06,10.68c-1.18,3.28-1.43,4.07-2.25,5a4.19,4.19,0,0,1-3.06,1.26c-2.46,0-2.46-.42-2.46-1.62a8.26,8.26,0,0,1,.11-1.46c0-.18.14-.18.25-.18a4,4,0,0,1,.67.15,8.82,8.82,0,0,0,1.71.18,2.72,2.72,0,0,0,2.38-1.09,7.29,7.29,0,0,0,.81-1.93c0-.06-.31-.18-.33-.24-.23-.23-.37-.53-1-2.05-1.77-4.3-4.1-10-4.19-10.11-.22-.44-.36-.51-.9-.67-.25-.09-.25-.24-.25-.47v-.5c0-.33.17-.35.33-.35.48,0,2.61.09,3,.09.87,0,2.83-.09,3.31-.09a.36.36,0,0,1,.39.35v.5c0,.41-.11.43-1,.67-.36.09-.9.33-.9.83s.45,1.61,2,5.71c.11.26.56,1.47.81,2.2.06.11.17.41.22.41a7.43,7.43,0,0,0,.45-1.26c.09-.38,2.11-6.66,2.11-7.19s-.4-.67-1.1-.84c-.43-.09-.45-.21-.45-.53v-.5c0-.24,0-.35.34-.35.7,0,1.51.09,2.21.09s1.61-.09,2-.09.36.17.36.35Z" transform="translate(-35.06 -19.98)"/></svg>